PathFileType	4	(X/Y/Z)	pose_F01_0-88.trc
DataRate	CameraRate	NumFrames	NumMarkers	Units	OrigDataRate	OrigDataStartFrame	OrigNumFrames
30	30	8	21	m	30	62	88
Frame#	Time	CHip			RHip			RKnee			RAnkle			RBigToe			RSmallToe			RHeel			LHip			LKnee			LAnkle			LBigToe			LSmallToe			LHeel			Neck			Nose			RShoulder			RElbow			RWrist			LShoulder			LElbow			LWrist			
		X1	Y1	Z1	X2	Y2	Z2	X3	Y3	Z3	X4	Y4	Z4	X5	Y5	Z5	X6	Y6	Z6	X7	Y7	Z7	X8	Y8	Z8	X9	Y9	Z9	X10	Y10	Z10	X11	Y11	Z11	X12	Y12	Z12	X13	Y13	Z13	X14	Y14	Z14	X15	Y15	Z15	X16	Y16	Z16	X17	Y17	Z17	X18	Y18	Z18	X19	Y19	Z19	X20	Y20	Z20	X21	Y21	Z21	
62	2.066666666666667	-0.23702287590070595	1.879991914151365	-0.376254518514138	-0.24977941285498312	1.8762955314644933	-0.31927955141330694	-0.2595590554868672	1.7413389930435803	-0.3461424888986387													-0.22697232796894345	1.8838052285981424	-0.4374664781286096	-0.21603661557274942	1.7486196460557404	-0.4378423821152771	-0.21003881797470597	1.6222528421388722	-0.44974036078458823	-0.20085575957272292	1.5925031002215624	-0.5139413038633472	-0.19632237227775667	1.6080022167111168	-0.5162624568196074	-0.21744821550718163	1.6270908390663936	-0.42046463454583927	-0.23294254159048133	2.034983575155791	-0.36811839129702645	-0.24770127080705967	2.104107130428995	-0.41709593250659543	-0.24969348005468886	2.0387535316947805	-0.3059633706729597	-0.28745563406725894	2.060855819539451	-0.3772003462218643	-0.31103260012531514	2.1056974064087672	-0.45686527430497675	-0.21938605880847706	2.033957899784396	-0.43899333066038143	-0.21088506869090085	1.9666574735786526	-0.4807318734819079	-0.20124192688528608	1.911092506541876	-0.5537614799029208
63	2.1	-0.23954063937733325	1.8819351043651955	-0.383196618998794	-0.251418029008626	1.877334248407968	-0.3228183263451468	-0.2595590554868672	1.7413389930435803	-0.3461424888986387													-0.22853825251544094	1.8837648250305932	-0.44100200786659144	-0.21658093106138326	1.7477751761356073	-0.4393711315919955	-0.21003881797470597	1.6222528421388722	-0.44974036078458823	-0.2006129278912121	1.5913815559448499	-0.5142851177960881	-0.19411388085040465	1.6067964736366818	-0.5186909955688432	-0.21744821550718163	1.6270908390663936	-0.42046463454583927	-0.2348209839605412	2.0375569756594776	-0.3672958052772979	-0.2477702621193449	2.1030321307754716	-0.41729762972182827	-0.24964836039340463	2.039775433341911	-0.3058243099586958	-0.2849088778716179	2.0674408827989845	-0.37893489621843474	-0.30785415047252573	2.10747287025044	-0.45561382613691215	-0.22041478106665996	2.034165641919086	-0.44213098703157544	-0.21105249181717586	1.9690060526470596	-0.48139680418667147	-0.2033533636571438	1.911805405449177	-0.5517169238878871
64	2.1333333333333333	-0.24067563752147506	1.8830058319921261	-0.386822796370318	-0.25367451066863833	1.881311542693895	-0.33032914261797486	-0.2595590554868672	1.7413389930435803	-0.3461424888986387													-0.2286189966620643	1.8848321785096689	-0.4412395593732917	-0.2171252465500171	1.7469307062154744	-0.44089988106871386	-0.21003881797470597	1.6222528421388722	-0.44974036078458823	-0.2005985046892118	1.590924935716741	-0.514383329480963	-0.19518359594592694	1.6072269996603727	-0.5218928344665306	-0.21744821550718163	1.6270908390663936	-0.42046463454583927	-0.23404850236004984	2.0363034404001725	-0.37189285140216666	-0.2477963958580043	2.10304666008414	-0.41733362583374456	-0.2496748233191818	2.039551262829377	-0.3059633466348746	-0.2851876985465869	2.06474035770034	-0.37910900898226463	-0.31075005712782144	2.104127284442386	-0.4479947145169527	-0.22035489115365398	2.034133823952456	-0.44212590020520914	-0.2110543777856136	1.9666438589450703	-0.4811094640785729	-0.20128479254343493	1.9112836332914438	-0.5537218865073171
65	2.1666666666666665	-0.24069462030384783	1.8806211246614126	-0.3864824261129505	-0.2525225147926965	1.8773773141023358	-0.3263178997977803	-0.2595590554868672	1.7413389930435803	-0.3461424888986387													-0.22874178527772346	1.8834708053001719	-0.44125584030676474	-0.21752590414006298	1.7500179842059473	-0.44098190721266334	-0.21003881797470597	1.6222528421388722	-0.44974036078458823	-0.20051540471398124	1.5901212922919306	-0.5143634428585556	-0.19704133356353448	1.6059369901403593	-0.5199769795571377	-0.21744821550718163	1.6270908390663936	-0.42046463454583927	-0.23569884157099064	2.0337675850020385	-0.36873130188767284	-0.2477362424821886	2.1042004068156945	-0.41724788525172396	-0.2497674487373772	2.038481475828524	-0.30590881658897917	-0.2833889165548317	2.0648538793551965	-0.3810023533973344	-0.3086161426710724	2.1077643981498038	-0.4495926005373272	-0.22034320411070998	2.0328035056881752	-0.44167549281008855	-0.2090921903366575	1.966542021062407	-0.4834958481630311	-0.19936929779941517	1.9098801628345203	-0.5559199804285011
66	2.2	-0.2397206659138811	1.8820115233490737	-0.39219078498951243	-0.2528147241674656	1.8800629782381781	-0.33566251404751796	-0.2595590554868672	1.7413389930435803	-0.3461424888986387													-0.227541704763901	1.8855457491083578	-0.4469402101148477	-0.21687709150260176	1.7478694997407263	-0.4413503046247984	-0.21003881797470597	1.6222528421388722	-0.44974036078458823	-0.20062442850987572	1.591129517921971	-0.5143173521934564	-0.19633743507052778	1.6077567826758317	-0.5165352359464251	-0.21744821550718163	1.6270908390663936	-0.42046463454583927	-0.2350490014328181	2.035127159112326	-0.37465208524432725	-0.2487959854822146	2.1033396293883895	-0.4204227440107521	-0.2508156424353319	2.0385624089307375	-0.30906690027723244	-0.28125016280172005	2.06834150796189	-0.3828163772861625	-0.30655990394764404	2.1111205870524126	-0.4520488590994958	-0.21859721966979268	2.034032730718235	-0.4443724073014845	-0.2099294010434413	1.9659891718974838	-0.48631555021792583	-0.20011445858354446	1.9120460377908017	-0.5592983969756876
67	2.2333333333333334	-0.24063604004488962	1.8810577341822865	-0.3951396138917582	-0.2518584816453616	1.8778937215773406	-0.3404896406495358	-0.2595590554868672	1.7413389930435803	-0.3461424888986387													-0.2276527532129024	1.8834238528207086	-0.44666527385639715	-0.21630399344867704	1.7496374913967583	-0.44444150422627815	-0.21003881797470597	1.6222528421388722	-0.44974036078458823	-0.20041685893151637	1.5899336625650844	-0.5143776777176752	-0.19614620714295258	1.6066146188808508	-0.5165234374693253	-0.21744821550718163	1.6270908390663936	-0.42046463454583927	-0.2370490300403797	2.034146807508486	-0.38048638878099444	-0.2486722445052633	2.104472641569857	-0.4203599396259947	-0.25088926028715725	2.0382912305957195	-0.30929759925039596	-0.28121018700447487	2.0675232096613465	-0.3823811836305564	-0.30676100850520965	2.111505524122559	-0.4601623182334649	-0.21854426821962025	2.034106143008231	-0.44441713591798365	-0.20993323373397832	1.9678584352507753	-0.49523445228974733	-0.20189528237761822	1.9128201285904531	-0.5657968650616743
68	2.2666666666666666	-0.23906357518560317	1.8810014361707235	-0.397505148303609	-0.25315082692037266	1.8778992527341152	-0.34388529205727003	-0.2595590554868672	1.7413389930435803	-0.3461424888986387													-0.2287554197751644	1.8833258224821143	-0.45004785088572197	-0.21573089539475232	1.75140548305279	-0.44753270382775795	-0.21003881797470597	1.6222528421388722	-0.44974036078458823	-0.19944671720129634	1.588287690784679	-0.5193266331678468	-0.19448396602927442	1.6034685176879038	-0.5225516204235391	-0.21744821550718163	1.6270908390663936	-0.42046463454583927	-0.23429908168041835	2.032935592312098	-0.3795257686828917	-0.24784722991190883	2.1048597526041175	-0.4255083902324681	-0.24729063303135645	2.0384078830219807	-0.3134473352302807	-0.2823425986413276	2.064865993902473	-0.38498623887388356	-0.30981782866857266	2.1091990530162654	-0.46089407888916223	-0.2186201010687948	2.0328618817660655	-0.4445712414347776	-0.20810130417175207	1.9666886719759087	-0.49748217489314966	-0.20086752703810323	1.911668582722987	-0.571122306021146
69	2.3	-0.24008419422299707	1.8784916821630304	-0.4004176427637831	-0.2533535636926008	1.8761039101020522	-0.3440700486616521	-0.2595590554868672	1.7413389930435803	-0.3461424888986387													-0.2267715374566563	1.8823530297521789	-0.45212025172021997	-0.21595382538830163	1.7502759142537783	-0.44739679333071586	-0.21003881797470597	1.6222528421388722	-0.44974036078458823	-0.20181423050835032	1.5893197309613531	-0.5171711664823048	-0.19656654815694335	1.6028014605667869	-0.5206593077570407	-0.21744821550718163	1.6270908390663936	-0.42046463454583927	-0.2352327486200639	2.0342420117437743	-0.38271574924513463	-0.24874666343472	2.1053066743740483	-0.4287079085796387	-0.24834865932105588	2.0394350374251378	-0.316718720758349	-0.28446283856958465	2.064592622833693	-0.39147709828532096	-0.3103796317605316	2.103978568266604	-0.46907824400739967	-0.2184202293667203	2.034279313879217	-0.4445194742393104	-0.20800442478299752	1.9692136938253617	-0.4980287597999883	-0.20165019452587113	1.9127983438082463	-0.5745792987631004
